
<svg viewBox="0 0 24 24" fill="none" xmlns="http://www.w3.org/2000/svg" width="24" height="24">
    <g id="SVGRepo_bgCarrier" stroke-width="0"/>
    <g id="SVGRepo_tracerCarrier" stroke-linecap="round" stroke-linejoin="round"/>
    <g id="SVGRepo_iconCarrier">
        <path d="m15 18 2 2 4 -4m-10 3H6.2c-1.12 0 -1.68 0 -2.108 -0.218a2 2 0 0 1 -0.874 -0.874C3 17.48 3 16.92 3 15.8V8.2c0 -1.12 0 -1.68 0.218 -2.108a2 2 0 0 1 0.874 -0.874C4.52 5 5.08 5 6.2 5h11.6c1.12 0 1.68 0 2.108 0.218a2 2 0 0 1 0.874 0.874C21 6.52 21 7.08 21 8.2V12m-0.393 -3.738 -5.057 3.371c-1.283 0.856 -1.925 1.284 -2.618 1.45a4.001 4.001 0 0 1 -1.864 0c-0.694 -0.167 -1.335 -0.594 -2.618 -1.45L3.147 8.1" stroke="#6b6b6b" stroke-width="2" stroke-linecap="round" stroke-linejoin="round"/>
    </g>
</svg>