<svg width="24px" height="24px" viewBox="0 0 1.92 1.92" fill="none" xmlns="http://www.w3.org/2000/svg"><path d="M0.97 1.332a0.143 0.143 0 0 0 -0.142 0.142v0.257h0.285v-0.257a0.143 0.143 0 0 0 -0.142 -0.142Z" fill="#000000"/><path d="M1.586 0.619 1.096 0.252a0.211 0.211 0 0 0 -0.252 0l-0.49 0.367a0.211 0.211 0 0 0 -0.084 0.168v0.735a0.21 0.21 0 0 0 0.21 0.21h0.228v-0.257a0.263 0.263 0 0 1 0.263 -0.263 0.263 0.263 0 0 1 0.263 0.263v0.257h0.227a0.21 0.21 0 0 0 0.21 -0.21v-0.735a0.212 0.212 0 0 0 -0.084 -0.168Z" fill="#999999"/></svg>