<svg width="24px" height="24px" viewBox="0 0 24 24" id="emoji" xmlns="http://www.w3.org/2000/svg"><g id="color"><path fill="#d0cfce" stroke="none" stroke-linecap="round" stroke-linejoin="round" stroke-miterlimit="10" stroke-width="0.6666666666666666" d="m15.667 16.947 3.514 2.865c0.328 0.267 0.819 0.034 0.819 -0.389V11.049c0 -0.423 -0.491 -0.656 -0.819 -0.389l-3.612 2.944"/><path cx="19.1667" cy="20.1667" r="7.1458" fill="#d0cfce" stroke="none" stroke-linejoin="round" stroke-miterlimit="10" stroke-width="0.6666666666666666" d="M8.771 6.722A2.382 2.382 0 0 1 6.389 9.104A2.382 2.382 0 0 1 4.007 6.722A2.382 2.382 0 0 1 8.771 6.722z"/><path cx="39.5625" cy="20.1667" r="7.1458" fill="#d0cfce" stroke="none" stroke-linejoin="round" stroke-miterlimit="10" stroke-width="0.6666666666666666" d="M15.569 6.722A2.382 2.382 0 0 1 13.188 9.104A2.382 2.382 0 0 1 10.806 6.722A2.382 2.382 0 0 1 15.569 6.722z"/><path fill="#d0cfce" stroke="none" stroke-linejoin="round" stroke-miterlimit="10" stroke-width="0.6666666666666666" d="M14.659 19.806H5.008A1.008 1.008 0 0 1 4 18.798V11.674A1.008 1.008 0 0 1 5.008 10.667h9.651A1.008 1.008 0 0 1 15.667 11.674v7.123a1.008 1.008 0 0 1 -1.008 1.008z"/></g><g id="hair"/><g id="skin"/><g id="skin-shadow"/><g id="line"><path fill="none" stroke="#000000" stroke-linecap="round" stroke-linejoin="round" stroke-miterlimit="10" stroke-width="0.6666666666666666" d="m15.667 16.947 3.514 2.865c0.328 0.267 0.819 0.034 0.819 -0.389V11.049c0 -0.423 -0.491 -0.656 -0.819 -0.389l-3.612 2.944"/><path cx="19.1667" cy="20.1667" r="7.1458" fill="none" stroke="#000000" stroke-linejoin="round" stroke-miterlimit="10" stroke-width="0.6666666666666666" d="M8.771 6.722A2.382 2.382 0 0 1 6.389 9.104A2.382 2.382 0 0 1 4.007 6.722A2.382 2.382 0 0 1 8.771 6.722z"/><path cx="39.5625" cy="20.1667" r="7.1458" fill="none" stroke="#000000" stroke-linejoin="round" stroke-miterlimit="10" stroke-width="0.6666666666666666" d="M15.569 6.722A2.382 2.382 0 0 1 13.188 9.104A2.382 2.382 0 0 1 10.806 6.722A2.382 2.382 0 0 1 15.569 6.722z"/><path fill="none" stroke="#000000" stroke-linejoin="round" stroke-miterlimit="10" stroke-width="0.6666666666666666" d="M14.659 19.806H5.008A1.008 1.008 0 0 1 4 18.798V11.674A1.008 1.008 0 0 1 5.008 10.667h9.651A1.008 1.008 0 0 1 15.667 11.674v7.123a1.008 1.008 0 0 1 -1.008 1.008z"/></g></svg>