<svg viewBox="0 0 24 24" xmlns="http://www.w3.org/2000/svg" fill="#000000" width="24" height="24"><g id="SVGRepo_bgCarrier" stroke-width="0"/><g id="SVGRepo_tracerCarrier" stroke-linecap="round" stroke-linejoin="round"/><g id="SVGRepo_iconCarrier"><path fill="#6b6b6b" d="M12 0c6.628 0 12 5.372 12 12s-5.372 12 -12 12S0 18.628 0 12 5.372 0 12 0Zm-0.174 8.652a0.838 0.838 0 0 0 -0.838 0.836v9.07a0.838 0.838 0 0 0 1.674 0V9.488a0.838 0.838 0 0 0 -0.836 -0.838Zm0.034 -3.349a1.116 1.116 0 1 0 0 2.232 1.116 1.116 0 0 0 0 -2.232Z"/></g></svg>