<svg width="24px" height="24px" viewBox="0 0 2.824 2.824" fill="none" xmlns="http://www.w3.org/2000/svg"><g id="SVGRepo_bgCarrier" stroke-width="0"/><g id="SVGRepo_tracerCarrier" stroke-linecap="round" stroke-linejoin="round"/><g id="SVGRepo_iconCarrier"><path opacity="0.1" d="M1.882 0.368c-0.094 -0.011 -0.203 -0.015 -0.328 -0.015h-0.285c-0.125 0 -0.234 0.004 -0.328 0.015v2.087c0.094 0.011 0.203 0.015 0.328 0.015h0.285c0.125 0 0.234 -0.004 0.328 -0.015V0.368Z" fill="#6b6b6b"/><path d="M0.941 0.412v2" stroke="#6b6b6b" stroke-width="0.23529411764705882" stroke-linecap="round" stroke-linejoin="round"/><path d="M1.882 0.412v2" stroke="#6b6b6b" stroke-width="0.23529411764705882" stroke-linecap="round" stroke-linejoin="round"/><path d="M2.471 1.412H0.471" stroke="#6b6b6b" stroke-width="0.23529411764705882" stroke-linecap="round" stroke-linejoin="round"/><path d="M0.941 0.941H0.471" stroke="#6b6b6b" stroke-width="0.23529411764705882" stroke-linecap="round" stroke-linejoin="round"/><path d="M0.941 1.882H0.471" stroke="#6b6b6b" stroke-width="0.23529411764705882" stroke-linecap="round" stroke-linejoin="round"/><path d="M2.353 0.941h-0.471" stroke="#6b6b6b" stroke-width="0.23529411764705882" stroke-linecap="round" stroke-linejoin="round"/><path d="M2.353 1.882h-0.471" stroke="#6b6b6b" stroke-width="0.23529411764705882" stroke-linecap="round" stroke-linejoin="round"/><path d="M0.353 1.269C0.353 0.515 0.515 0.353 1.269 0.353h0.285C2.309 0.353 2.471 0.515 2.471 1.269v0.285c0 0.755 -0.162 0.916 -0.916 0.916h-0.285C0.515 2.471 0.353 2.309 0.353 1.554v-0.285Z" stroke="#6b6b6b" stroke-width="0.23529411764705882"/></g></svg>